# xmcd
#
# Track frame offsets: 
#        150
#        16572
#        35412
#        51312
#        66312
#        81867
#        97716
#        115191
#        129837
#        144237
#        165825
#        179918
#
# Disc length: 2640 seconds
#
# Revision: 0
# Processed by: cddbd v1.5.2PL0 Copyright (c) Steve Scherf et al.
# Submitted via: ExactAudioCopy v1.0b3
#
DISCID=8f0a4e0c
DTITLE=Jesse and Noah - Landfall
DYEAR=2010
DGENRE=Country
TTITLE0=Tow Truck
TTITLE1=Tryin' to Keep it Real
TTITLE2=Waiting on an Echo
TTITLE3=Buried in Blue Jeans
TTITLE4=Crackerjack Heart
TTITLE5=First Call After Last Call
TTITLE6=Landfall
TTITLE7=If I Were You
TTITLE8=Dirty with a Southern Drawl
TTITLE9=Sunny Weather with You
TTITLE10=No Expiration
TTITLE11=Won't Give In
EXTD=
EXTT0=
EXTT1=
EXTT2=
EXTT3=
EXTT4=
EXTT5=
EXTT6=
EXTT7=
EXTT8=
EXTT9=
EXTT10=
EXTT11=
PLAYORDER=
